<?xml version="1.0" encoding="UTF-8"?>
<!-- Generated by Pixelmator Pro 3.3 -->
<svg width="1000" height="1000" viewBox="0 0 1000 1000" xmlns="http://www.w3.org/2000/svg" xmlns:xlink="http://www.w3.org/1999/xlink">
    <path id="Preenchimento-de-cor" fill="#2e1c6a" stroke="none" visibility="hidden" d="M 0 0 L 1000 0 L 1000 1000 L 0 1000 Z"/>
    <g id="Logo-Placeholder-Replace-With-Your-Logo">
        <g id="Logo-Symbols">
            <path id="Symbol-4" fill="#3662e3" fill-rule="evenodd" stroke="none" visibility="hidden" d="M -9.314716 1000.093567 C 63.002777 843.19873 190.830841 709.565186 361.075989 666.741882 C 181.12204 617.362305 30.451166 473.044922 -9.314716 277.831604 C -13.865477 254.508728 -7.608181 236.336182 -9.314716 213.013306 C -9.314716 213.013306 144.469131 247.144226 268.478333 213.013306 C 400.45163 177.17572 554.490784 72.756958 694.427673 27.817932 C 857.118713 -24.516357 972.220642 9.298401 972.220642 9.298401 C 979.615662 31.483582 995.449402 50.225586 999.999939 74.116699 C 1054.019043 339.301636 886.918823 596.317566 629.609253 666.741882 C 800.316589 709.464905 942.942871 840.6604 1009.259766 1000.093567 L -9.314716 1000.093567 Z"/>
            <path id="Symbol-3" fill="#8ee09c" fill-rule="evenodd" stroke="none" visibility="hidden" d="M -9.314716 0.038635 L 249.958786 703.781006 L 1000 0.038635 Z M -9.314716 1000.093567 L 249.958786 703.781006 L 1000 1000.093567 Z"/>
            <path id="Symbol-2" fill="#3662e3" fill-rule="evenodd" stroke="none" visibility="hidden" d="M -0.054948 1000.093567 L -0.054948 500.066101 C 275.381042 500.066101 497.741791 725.118408 499.972504 1000.093567 C 502.150848 725.171143 724.563843 500.066101 1000 500.066101 L 1000 1000.093567 L 499.972504 1000.093567 L 499.972504 1000.093567 L -0.054948 1000.093567 Z M 1000 500.066101 C 722.064392 498.954651 499.972504 276.827087 499.972504 0.038635 L 1000 0.038635 L 1000 500.066101 Z M 499.972504 0.038635 C 499.999786 276.889771 276.73349 500.066101 -0.054948 500.066101 L -0.054948 0.038635 L 499.972504 0.038635 Z"/>
            <path id="Symbol-1" fill="#3662e3" fill-rule="evenodd" stroke="none" d="M 495.412811 1000.093567 C 219.223709 997.828918 0 778.930847 0 504.680725 C 0 230.430664 221.162704 9.267883 495.412811 9.267883 C 769.662903 9.267883 1000 230.430664 1000 504.680725 C 1000 778.930847 769.662903 1000.093567 495.412811 1000.093567 Z M 403.669708 688.166931 C 337.590179 651.633911 293.577972 585.137329 293.577972 504.680725 C 293.577972 424.317322 336.825439 355.615173 403.669708 321.194458 C 180.449188 338.25354 9.174312 413.343567 9.174312 504.680725 C 9.174312 596.0495 180.335083 671.142578 403.669708 688.166931 Z M 587.155945 688.166931 C 805.736755 668.990112 981.651367 596.050903 981.651367 504.680725 C 981.651367 413.341919 810.381531 338.251831 587.155945 321.194458 C 654.000061 355.615173 706.421997 424.317322 706.421997 504.680725 C 706.421997 585.137329 654.12677 653.787903 587.155945 688.166931 Z"/>
        </g>
        <text id="Imagine" visibility="hidden" xml:space="preserve"><tspan x="-689.940901" y="1626" font-family="Archivo SemiExpanded" font-size="574.105609" font-weight="700" fill="#3662e3" letter-spacing="-11.316707" xml:space="preserve">Imagine</tspan><tspan x="-193.74825" y="2126" font-family="Archivo SemiExpanded" font-size="574.105609" font-weight="700" fill="#3662e3" letter-spacing="-11.316707" xml:space="preserve">Shirt</tspan></text>
    </g>
</svg>
